<svg xmlns="http://www.w3.org/2000/svg" width="130" height="189.341" viewBox="0 0 130 189.341"><g transform="translate(-7800.969 -6824.35)"><path d="M7942.6,6859.879v119.216l-9.844-10.1-9.739,9.992-9.739-9.992-9.739,9.992-9.738-9.992-9.734,9.992-9.739-9.992-9.738,9.992-9.739-9.992-9.74,9.992-9.739-9.992-9.844,10.1V6824.35h81.545Z" transform="translate(-11.628)" fill="#f2f2f2"/><path d="M7980.424,6859.879V6824.35l35.529,35.529Z" transform="translate(-84.984)" fill="#dedede"/><path d="M7883.519,7129.065l24.6,24.6a4.056,4.056,0,1,1-5.736,5.736l-24.6-24.6Z" transform="translate(-36.377 -146.903)" fill="#bdbdbd"/><rect width="8.112" height="6.375" transform="translate(7841.406 6987.899) rotate(-45)" fill="#555"/><path d="M7811.907,7063.191a21.168,21.168,0,1,1,0,29.936,21.192,21.192,0,0,1,0-29.936m-3.351-3.351a25.906,25.906,0,1,0,36.638,0,25.907,25.907,0,0,0-36.638,0Z" transform="translate(0 -110.527)" fill="#bdbdbd"/><path d="M7819.54,7070.819a19.01,19.01,0,0,0-5.591,13.485h3.5a15.552,15.552,0,0,1,15.577-15.572v-3.5A19,19,0,0,0,7819.54,7070.819Z" transform="translate(-6.147 -116.675)" fill="#fff" opacity="0.63"/><path d="M7893.552,6939.434l-1.793-1.793-5.74,5.74-5.739-5.74-1.793,1.793,5.74,5.739-5.74,5.74,1.793,1.793,5.739-5.739,5.74,5.739,1.793-1.793-5.74-5.74Z" transform="translate(-36.71 -53.651)" fill="#dedede"/><path d="M7981.3,6937.505l-2.07-2.07-6.624,6.624-6.623-6.624-2.07,2.07,6.624,6.624-6.624,6.623,2.07,2.07,6.623-6.624,6.624,6.624,2.07-2.07-6.624-6.623Z" transform="translate(-77.163 -52.606)" fill="#dedede"/><path d="M7908.231,6998.27l-8-6.317-8,6.317-8.815-6.961,1.632-2.065,7.184,5.672,8-6.317,8,6.317,8-6.317,8,6.317,8-6.317,8.817,6.961-1.63,2.066-7.187-5.673-8,6.317-8-6.317Z" transform="translate(-39.045 -77.782)" fill="#dedede"/></g></svg>